<?xml version="1.0" encoding="UTF-8"?><svg id="_图层_1" xmlns="http://www.w3.org/2000/svg" viewBox="0 0 512 512"><defs><style>.cls-1{fill:#dadada;}</style></defs><path class="cls-1" d="m387.3252,202.6875c-12.96094-24.65723-37.13965-50.72949-66.33691-71.5332-9.98352-7.11328-20.03076-13.20795-29.73254-18.12347-4.52722-2.6106-7.25574-4.03082-7.25574-4.03082-10.16333-5.71692-20.67896-8.50378-30.95581-9.27051-3.17517-.47705-6.20361-.72949-9.04712-.72949-8.88159,0-19.62061,2.48688-31.34106,7.07977-3.12891,1.18011-6.10962,2.46301-8.91113,3.80908-11.58704,5.35803-23.87109,12.54974-36.10229,21.26544-29.32227,20.89453-53.5459,46.9668-66.45898,71.5332-1.64624,3.1311-13.60352,27.57758-5.27942,61.09979-2.27283,14.77765-1.39563,34.37347,8.54456,55.49634,20.56909,43.70917,58.58789,84.85132,101.01355,111.11487,10.2384,6.33801,24.24329,10.10132,35.35474,10.10132,9.09119,0,25.63-3.76331,35.86829-10.10132,42.42578-26.26355,80.44458-67.4057,101.01355-111.11487,6.67834-14.19159,9.2616-27.6925,9.55286-39.50983,17.58862-41.52863,1.9718-73.47589.07349-77.0863Z"/></svg>