<svg width="512" height="512" viewBox="0 0 512 512" fill="none" xmlns="http://www.w3.org/2000/svg">
<path d="M231.015 453.143C238.373 461.19 247.548 467.362 257.775 471.143C274.775 477.243 292.195 477.743 309.865 475.563C339.225 471.943 366.175 462.043 388.355 442.113C413.425 419.593 429.015 392.363 426.025 357.113C425.805 354.443 427.025 351.253 428.495 348.883C457.495 302.113 466.785 251.643 455.875 197.883C433.435 87.2029 323.875 14.2729 210.275 40.2729C161.984 51.324 119.374 79.5932 90.4195 119.79C61.4648 159.987 48.1495 209.358 52.9652 258.663C55.7652 287.363 63.8153 314.343 78.2953 339.193C82.3653 346.193 84.9253 352.193 79.8753 359.353C79.473 360.082 79.2054 360.878 79.0852 361.703C72.1452 391.823 80.3952 418.073 100.595 440.503C118.415 460.313 141.385 470.613 167.845 473.703C191.335 476.453 212.005 471.213 229.115 454.263C229.696 453.829 230.32 453.453 230.975 453.143H231.015Z" fill="#D8DAE3"/>
</svg>
