<svg width="512" height="512" viewBox="0 0 512 512" fill="none" xmlns="http://www.w3.org/2000/svg">
<path d="M322.658 43.4985C292.772 39.7103 266.158 58.4987 261.658 66.4987C256.159 61.9985 238.659 45.1282 204.158 54.4987C167.538 64.4447 157.659 89.9985 143.159 108.999C138.992 112.999 124.756 124.701 111.158 143.499C94.1589 166.999 88.1233 196.929 78.1589 223.499C67.6581 251.499 49.6573 291.499 67.6581 345.499C89.659 411.499 162.516 448.152 244.658 452.499C339.158 457.499 416.902 411.999 440.158 351.999C463.414 291.999 450.658 269.499 429.658 175.999C406.644 73.531 358.158 47.9984 322.658 43.4985Z" fill="#D8DAE3"/>
</svg>
