<?xml version="1.0" encoding="UTF-8"?>
<svg id="Layer_1" data-name="Layer 1" xmlns="http://www.w3.org/2000/svg" viewBox="0 0 512 512">
  <defs>
    <style>
      .cls-1 {
        fill: none;
        stroke-width: 0px;
      }

      .cls-2 {
        stroke-miterlimit: 10;
      }

      .cls-2, .cls-3 {
        fill: #d8dae3;
        stroke: #d8dae3;
      }

      .cls-3 {
        stroke-linecap: round;
        stroke-linejoin: round;
        stroke-width: 5.4px;
      }
    </style>
  </defs>
  <g>
    <polygon class="cls-2" points="225.19 284.3 249.46 231.18 305.47 243.55 366.01 282.17 333.37 333.47 225.19 284.3"/>
    <path class="cls-3" d="m237.15,231.82c1.89-31.24,6.38-91.46,7.95-122.92,1.86-37.19-14.77-54.42-39-54.98-20.24-.47-28.91,19.33-29.93,51.54-.81,25.46,5.33,95.06-12.6,162.58-1.18,4.45-7.15,4.51-8.33.06-11.97-21.67-26.43-48.99-49.07-68.53-19.53-16.86-47.13-19.27-61.01-5.29-13.88,13.99-10.37,39.03,15.72,69,28.63,32.88,29.29,55.84,36.88,81.29,7.41,24.84,13.93,50.32,29.29,68.31,17.88,20.94,36.47,31.66,77.92,44.73,41.45,13.07,69,13.76,87.49,7.94,58.38-18.4,64.46-58.3,92.57-124.56,14.28-33.65,50.64-50.31,66.98-65.35,20.08-18.49,25.87-39.65,13.82-52.51-10.9-11.64-26.41-11-47.48,5.18-21.07,16.18-40.92,29.99-61.2,52.55"/>
    <path class="cls-3" d="m303.97,248.53s1.38-16.14,9.69-41.03c6.93-21.98,20.74-57.65,31.21-87,11.27-31.57.5-51.41-19.39-57.96-19.9-6.56-33.82,10.03-44.86,41.59-7.55,21.57-10.92,31.09-24.68,77.79-7.03,23.87-11.64,39.12-18.5,52.86"/>
    <path class="cls-3" d="m357.15,280.87c14.54-25.4,43.73-72.41,61.91-97.69,17.09-23.76,20.05-49.75,2.68-61.46-17.37-11.71-35.13-1.34-48.33,19.81-20.25,32.47-47.46,75.57-69.45,107"/>
    <path class="cls-2" d="m251.06,237.51s-.04.05-.07.08"/>
  </g>
  <rect class="cls-1" width="512" height="512" rx="90.32" ry="90.32"/>
</svg>