<svg id="图层_1" data-name="图层 1" xmlns="http://www.w3.org/2000/svg" viewBox="0 0 512 512"><defs><style>.cls-1{fill:#d8dae3;}</style></defs><title>酸Q</title><path class="cls-1" d="M456,216S413,75,245,68c10-25-4-47-4-47s-31,33-74,31c-59-5-59,45-59,45s-15-1-35,15c-24,22-15,57-15,57S0,213,22,285c10,33,8,53,8,53s16-3,26-9c11.27094,37.33508,36.43506,63.25531,50.32648,75.31689C82.99506,411.45911,69,420.57166,69,430.5c0,22.9198,74.54462,41.5,166.5,41.5,64.24274,0,119.97888-9.07,147.74384-22.35144C431.63013,444.313,464,434.59937,464,423.5c0-5.38251-7.62152-10.43823-20.98016-14.828l.0003-.00019C467.04028,392.34369,461,347,461,347s42-15,44-50C509,245,456,216,456,216Z"/></svg>