<?xml version="1.0" encoding="utf-8"?>
<!-- Generator: Adobe Illustrator 26.0.2, SVG Export Plug-In . SVG Version: 6.00 Build 0)  -->
<svg version="1.1" id="Layer_1" xmlns="http://www.w3.org/2000/svg" xmlns:xlink="http://www.w3.org/1999/xlink" x="0px" y="0px"
	 viewBox="0 0 512 512" style="enable-background:new 0 0 512 512;" xml:space="preserve">
<style type="text/css">
	.st0{fill:#D8DAE3;}
</style>
<path class="st0" d="M407.01,351.1c0,0,21.84,9.27,38.35,8.85s15.95-5.84,13.98-8.85s-50.68-64.71-55.91-71.48
	c0,0-0.28-45.88-7.06-94.16S364.47,71.1,302.07,49.36s-129.04,0.28-158.68,51.95s-33.6,85.84-34.45,129.6c0,0-0.71-2.45-1.08,9.88
	c-0.38,12.33-1.36,25.6-1.36,25.6s-20.05,27.86-40.38,53.84c-20.33,25.98-26.35,32.38-23.72,35.95c2.64,3.58,32,5.84,63.81-10.54
	l3.76,0.56c0,0,6.96,44.99,43.48,81.88c0,0-58.35,17.51-57.98,33.51s84.71,12.42,127.25,7.15l0.99,0.19c0,0-2.02,8.09,24.89,9.79
	c26.92,1.69,73.98,1.22,87.34-0.66c13.36-1.88,16.38-5.65,15.62-10.73c-0.75-5.08-3.58-7.91-3.58-7.91s13.51-0.94,42.16-9.84
	c28.66-8.89,32.19-16.09,32.33-21.74c0.14-5.65-7.06-16.09-11.01-29.08C407.52,385.78,407.01,351.1,407.01,351.1z"/>
</svg>
