<svg width="580" height="240" viewBox="0 0 580 240" fill="none" xmlns="http://www.w3.org/2000/svg">
<path d="M300.367 149.434C298.024 150.342 296.203 150.99 294.381 151.638C294.511 152.546 294.641 153.453 294.641 154.231C306.483 148.008 318.324 150.212 330.296 152.157C329.385 153.453 328.474 155.009 327.043 157.083C333.939 153.712 339.925 150.342 346.041 147.749C349.164 146.452 353.458 143.341 355.15 149.823C355.28 150.212 359.314 150.471 360.745 149.564C363.088 147.878 364.909 145.285 366.861 143.081C371.286 138.025 376.751 135.562 383.517 136.081C383.517 141.785 386.901 141.266 390.024 139.451C392.366 138.025 393.667 135.303 395.749 133.358C399.523 129.728 403.427 126.227 407.721 122.338C410.454 129.339 412.796 129.728 416.57 125.061C419.042 122.079 420.864 118.578 423.076 115.337C428.021 108.336 430.753 107.558 439.472 110.022C440.773 110.411 442.725 109.373 444.156 108.596C453.135 103.669 462.374 99.9093 472.914 99.3907C476.298 99.2611 480.462 96.2792 482.804 93.5567C498.029 75.7952 510.131 71.9058 531.601 79.4252C536.806 81.2403 541.491 85.1297 546.306 87.9819C546.045 88.5005 545.915 89.1487 545.655 89.6673C541.231 89.6673 536.937 89.6673 532.773 89.6673C539.929 95.3717 547.737 100.169 553.333 106.651C559.839 114.3 556.325 123.246 553.202 131.154C548.908 128.042 544.874 125.19 540.58 122.208C537.978 128.95 536.026 133.877 533.814 139.581C529.91 133.228 526.787 128.172 523.664 123.116C523.013 123.375 522.493 123.764 521.842 124.023C520.931 127.265 519.89 130.506 519.109 133.228C510.391 127.783 501.672 122.597 493.344 117.152C489.831 114.819 487.749 115.596 485.276 118.578C476.298 129.339 467.319 140.229 457.69 150.471C451.834 156.824 444.937 162.01 438.171 168.103C438.821 170.177 439.472 172.641 440.253 175.882C450.012 174.326 459.772 174.196 467.709 182.623C455.087 180.16 446.108 186.902 436.739 193.125C433.486 195.329 429.192 196.107 424.377 197.922C425.678 201.292 426.98 204.534 428.541 208.423C424.637 212.701 420.213 212.183 415.789 207.904C409.022 215.165 406.68 215.554 397.831 210.886C399.002 216.461 399.913 221.388 401.085 226.703C394.318 231.5 389.503 228.907 387.161 217.758C385.209 221.647 383.648 224.888 381.696 228.518C375.84 228.389 373.237 225.796 374.539 218.665C375.319 213.739 377.662 209.071 379.223 204.404C372.327 204.404 365.56 205.441 359.054 204.145C349.685 202.33 340.315 201.163 330.946 202.719C324.44 203.756 318.064 206.089 311.557 206.738C304.14 207.515 296.723 206.867 289.306 206.997C287.354 206.997 284.751 206.478 283.71 207.515C275.382 215.165 266.143 214.905 256.384 211.146C254.172 210.238 251.96 209.331 249.878 208.293C245.844 206.089 241.94 204.923 238.166 208.812C237.516 209.59 236.214 210.108 235.303 210.108C222.161 211.016 208.758 215.035 195.875 208.553C195.094 208.164 193.923 207.775 193.793 207.127C191.841 200.385 184.424 200.515 180 195.329C178.568 198.7 177.397 201.422 176.226 204.274C168.028 203.367 166.597 199.996 170.761 188.328C166.987 190.013 164.124 191.439 160.741 192.995C153.714 187.42 155.406 184.568 175.185 172.77C172.192 164.732 167.247 157.731 159.309 154.231C137.448 144.248 115.327 135.043 93.2052 125.579C82.7951 127.913 76.6792 117.8 66.7896 117.023C65.7485 118.319 64.187 120.134 62.6255 122.079C59.8929 120.782 57.1602 119.616 54.4275 118.319C53.3865 125.968 48.0513 122.338 44.2777 122.597C41.545 122.727 38.6822 122.597 34.3881 122.597C31.9157 121.171 27.3612 119.356 23.8478 116.245C21.8959 114.43 20.985 110.8 20.7248 107.818C20.4645 105.743 22.0261 103.41 22.4164 102.373C31.9157 97.9646 40.504 94.0752 49.0924 90.1859C48.9622 89.6673 48.9622 89.1487 48.8321 88.5005C43.7572 88.2412 38.422 86.6854 33.7374 87.8522C28.9228 89.019 24.6286 88.2412 21.2453 86.1668C17.7319 84.0925 14.3486 80.2031 13.0473 76.4434C11.6159 72.0354 10.8352 65.9421 16.3005 63.2195C19.1633 61.7934 23.1972 62.1823 26.5805 62.5713C28.142 62.7009 30.0939 64.7752 30.7445 66.331C32.5663 70.9983 34.5182 70.6093 37.7714 67.4978C39.8534 65.5531 42.7162 64.127 45.4488 63.0898C51.5648 60.8859 57.6807 59.0708 63.7967 57.1261C65.4883 56.6075 67.5703 55.7 68.7415 56.3483C75.6382 59.8487 76.8093 54.5332 78.5009 50.2549C79.0214 48.8288 79.2817 47.4027 79.8022 45.9766C82.2746 38.9757 86.3085 38.1978 92.4245 44.9394C94.8969 39.7536 97.109 35.0863 99.3212 30.4191C100.883 26.9186 100.492 21.0845 106.348 22.1217C112.204 23.1589 111.423 28.604 111.813 33.012C111.943 34.9567 113.245 36.7717 113.895 38.5867C114.546 38.4571 115.197 38.3275 115.847 38.1978C116.888 35.6049 117.409 32.7527 118.97 30.5487C120.402 28.604 123.134 25.8814 124.826 26.1407C126.778 26.5297 129.12 29.5115 129.641 31.8452C130.812 35.9938 129.771 40.0129 133.024 44.4208C135.887 48.1806 130.552 51.8106 126.387 53.6257C122.354 55.4407 118.19 57.2558 114.025 59.0708C114.156 59.719 114.286 60.3673 114.546 60.8859C123.395 64.7752 132.373 68.4053 141.092 72.6837C144.475 74.3691 147.858 76.7027 150.331 79.5549C152.022 81.3699 152.022 84.7407 152.803 87.7226C150.981 88.1115 147.988 88.6301 143.564 89.5376C154.365 95.5013 166.466 87.9819 176.096 96.4089C173.233 97.1867 171.281 97.7053 169.329 98.2239C172.973 102.243 176.746 103.021 188.458 103.928C194.964 104.447 201.21 106.132 208.497 107.558C205.635 110.67 204.203 112.226 202.642 113.911C204.594 114.948 206.545 116.763 208.627 117.023C215.004 118.06 221.64 118.319 227.886 119.486C231.66 120.264 235.303 122.208 238.947 123.635C238.817 124.153 238.817 124.672 238.687 125.19C237.125 125.709 235.564 126.227 233.482 126.876C235.694 131.932 239.858 132.062 243.892 132.191C249.227 132.321 254.822 131.673 260.027 132.58C263.801 133.228 267.314 135.951 270.828 137.766C270.568 138.285 270.307 138.933 270.047 139.451C267.835 139.711 265.623 139.97 263.15 140.229C265.363 145.934 269.917 144.248 273.3 143.989C282.8 143.081 291.648 143.47 300.367 149.434Z" fill="#E0E2E9"/>
<path d="M307.64 95.046C307.9 93.1409 308.029 92.6328 307.9 92.3788C306.211 88.0605 302.834 82.98 306.86 79.1697C313.225 73.0732 319.979 66.9767 330.63 69.6439C338.553 71.549 344.917 75.2324 350.762 80.4398C357.126 86.0283 364.01 91.2357 369.076 95.4271C375.7 93.9029 380.765 92.7599 385.831 91.6168C386.221 92.2518 386.61 93.0139 387 93.6489C381.155 98.2213 376.999 103.429 378.557 112.065C375.31 109.652 372.063 107.239 368.686 104.826C360.503 107.493 351.671 110.287 342.319 113.336C344.008 114.733 345.696 116.003 347.515 117.527C341.02 121.464 335.176 120.575 330.759 115.749C328.811 113.717 326.343 112.193 324.005 110.541C319.07 106.858 314.134 103.302 309.198 99.4914C309.198 99.4914 308.679 100.38 308.289 101.27C303.354 111.811 297.898 113.082 288.936 105.588C285.819 103.048 282.832 100.253 279.844 97.4592C275.948 93.9029 274.259 89.9656 278.415 85.3932C283.351 80.0588 289.586 78.7887 294.391 82.472C296.729 84.2501 298.937 86.2823 301.146 88.4415C303.354 90.0926 305.042 92.2518 307.64 95.046Z" fill="#E0E2E9"/>
</svg>
