<?xml version="1.0" encoding="utf-8"?>
<!-- Generator: Adobe Illustrator 26.0.2, SVG Export Plug-In . SVG Version: 6.00 Build 0)  -->
<svg version="1.1" id="Layer_2" xmlns="http://www.w3.org/2000/svg" xmlns:xlink="http://www.w3.org/1999/xlink" x="0px" y="0px"
	 viewBox="0 0 512 512" style="enable-background:new 0 0 512 512;" xml:space="preserve">
<style type="text/css">
	.st0{fill:#D8DAE3;}
</style>
<g>
	<path class="st0" d="M377.27,86.63c-32-1.37-47.81,32.19-55.15,51.2c-7.34,19.01-10.54,46.68-10.73,62.49
		c0,0-24.66-13.79-50.95-21.37c1.79-8.3,2.75-16.92,2.75-25.76c0-66.39-53.3-120.21-119.05-120.21S25.08,86.81,25.08,153.2
		s53.3,120.21,119.05,120.21c10.13,0,19.97-1.28,29.36-3.69c0,0,0,0,0,0l1.61,2.5c0,0-10.35,7.15-13.18,20.14s3.58,24.09,3.58,24.09
		s-8.85,6.4-6.59,23.53c2.26,17.13,26.35,48.19,92.24,63.62s99.76,0,120.09-22.96c20.33-22.96,33.88-62.68,32.56-101.46
		c-1.32-38.78-6.21-48.38-8.09-68.52c-1.88-20.14,2.26-52.33,12.42-77.36C418.3,108.28,408.14,87.95,377.27,86.63z"/>
	<path class="st0" d="M307.07,126.7c0.19,0.96,1.72,0.97,1.93,0.01l18.76-94.67c0.29-1.34-0.82-2.6-2.34-2.66l-33.81-1.23
		c-1.42-0.06-2.54,1.09-2.29,2.35L307.07,126.7z"/>
	<path class="st0" d="M488.26,194.01l-15.93-27.14c-0.69-1.25-2.07-1.72-2.83-0.97l-58.8,54.89c-0.58,0.57,0.2,1.89,0.98,1.66
		l75.9-25.31C488.67,196.83,489,195.35,488.26,194.01z"/>
	<path class="st0" d="M147.02,345.72L26.15,370.87c-2.47,0.5-3.95,3.05-3.16,5.44l9.55,28.8c0.82,2.47,3.67,3.61,5.96,2.39
		l109.69-58.47C149.63,348.26,149.64,345.31,147.02,345.72z"/>
	<path class="st0" d="M187.02,407.35l-68.41,51.61c-1.53,1.14-1.57,3.42-0.07,4.61l26.69,21.31c1.4,1.11,3.47,0.71,4.34-0.85
		l41.25-73.35C192.2,408.24,189.25,405.66,187.02,407.35z"/>
	<path class="st0" d="M226.75,428.67l-26.79,43.27c-0.87,1.41-0.07,3.26,1.56,3.59l32.29,6.43c2.01,0.4,3.83-1.27,3.6-3.31
		l-5.45-48.66C231.56,426.62,228.5,425.75,226.75,428.67z"/>
	<path class="st0" d="M478.18,446.31l-50-23.76c-1.6-0.81-3.97,0.7-2.92,3.05l23.11,52.53c0.91,2.06,3.63,2.52,5.16,0.86l25.6-27.73
		C480.57,449.71,480.09,447.22,478.18,446.31z"/>
	<path class="st0" d="M488.66,275l-50.53-0.99c-1.68-0.01-3.22,2.08-1.49,3.51l38.35,32.03c1.5,1.26,4.04,0.56,4.79-1.32
		l11.42-29.73C491.91,276.73,490.63,274.97,488.66,275z"/>
</g>
</svg>
