<?xml version="1.0" encoding="utf-8"?>
<!-- Generator: Adobe Illustrator 26.0.2, SVG Export Plug-In . SVG Version: 6.00 Build 0)  -->
<svg version="1.1" id="Layer_2" xmlns="http://www.w3.org/2000/svg" xmlns:xlink="http://www.w3.org/1999/xlink" x="0px" y="0px"
	 viewBox="0 0 512 512" style="enable-background:new 0 0 512 512;" xml:space="preserve">
<style type="text/css">
	.st0{fill:#D8DAE3;}
</style>
<path class="st0" d="M439.33,234.96c0-115.19-87.74-208.58-195.98-208.58S47.37,119.76,47.37,234.96
	c0,37.81,9.45,73.27,25.98,103.85c-5.44,4.59-10.04,12.49-8.93,20.39c1.51,10.73,11.48,35.39,39.72,56.85
	c28.24,21.46,47.25,22.49,47.25,22.49s2.16,20.52,7.15,29.46c5.52,9.89,11.95,10.54,34.82,8.85s32.19-8.19,32.19-8.19
	s6.31,0.28,13.74,1.51c7.44,1.22,20.71,1.88,31.34-10.35c6.96-8.01,8.44-15.53,8.63-19.78C370.35,422.08,439.33,337.1,439.33,234.96
	z"/>
</svg>
