<?xml version="1.0" encoding="utf-8"?>
<!-- Generator: Adobe Illustrator 26.0.2, SVG Export Plug-In . SVG Version: 6.00 Build 0)  -->
<svg version="1.1" id="Layer_2" xmlns="http://www.w3.org/2000/svg" xmlns:xlink="http://www.w3.org/1999/xlink" x="0px" y="0px"
	 viewBox="0 0 512 512" style="enable-background:new 0 0 512 512;" xml:space="preserve">
<style type="text/css">
	.st0{fill:#D8DAE3;}
</style>
<path class="st0" d="M449.64,122.49c2.73-1.79,4.38-6.68-0.09-11.86c-4.47-5.18-14.87-12.89-14.87-12.89
	c9.41,2.54,14.36,6.83,20.14,9.04c7.91,3.01,11.58-5.74,8.28-9.22c-2.39-2.53-11.48-9.04-39.25-17.79
	c-19.18-6.05-34.99-7.38-42.93-7.62C346.88,45.4,304,29.46,257.41,29.46c-51.29,0-98.07,19.33-133.53,51.1
	c-7.72,1.04-27.31,3.98-38.8,8.33c-14.54,5.51-16.66,8.26-15.18,14.12c1.48,5.86,9.67,3.74,12.71,2.47s13.13-5.36,16.02-6.14
	c0,0-7.13,4.94-14.4,10.16S78.8,119.95,81.48,122c0,0-9.11,6.92-13.62,12.21c-4.52,5.29-1.76,10.09,1.48,10.8
	c0,0-0.87,5.19,3.16,7.69c-10.04,23.95-15.59,50.26-15.59,77.87c0,111.07,89.77,201.1,200.5,201.1s200.5-90.04,200.5-201.1
	c0-20.79-3.15-40.85-8.99-59.71c0.76-1.69,0.67-3.91-0.08-5.68c-0.46-1.07-1.79-2.67-3.3-4.28c-2-5.42-4.23-10.73-6.66-15.92
	c4.51,4.07,10.99,9.66,14.38,9.57c5.27-0.14,6.07-8.28,6.07-8.28c3.34-0.47,5.74-4.99,4.19-9.36
	C461.97,132.51,449.64,122.49,449.64,122.49z"/>
</svg>
