<svg id="图层_1" data-name="图层 1" xmlns="http://www.w3.org/2000/svg" viewBox="0 0 512 512"><defs><style>.cls-1{fill:#dadada;}</style></defs><title>鞭炮默认</title><path class="cls-1" d="M240.95076,223.65215c-.53459,3.43016-.07043,5.623,2.92,7.65594,8.6024,5.848,13.67575,14.36356,16.59119,24.23509a7.91427,7.91427,0,0,1-1.16074,6.9046c-1.2381,1.8563-2.54849,3.66434-4.11611,5.90741a23.99135,23.99135,0,0,0,2.93151-.36291c4.1936-1.10922,7.42328.465,10.33014,3.39059q19.028,19.15059,38.13348,38.22425c10.30151,10.31982,20.56214,20.681,30.93268,30.931,2.37573,2.34808,3.06729,4.94485,2.01788,7.93313a27.88523,27.88523,0,0,1-3.20135,6.98975c-11.649,16.3443-26.99518,27.61752-46.38718,33.15124a23.68825,23.68825,0,0,1-5.42276.76456,9.56861,9.56861,0,0,1-8.92035-4.38315c-7.377-10.59265-14.95083-21.04828-22.45-31.55581-.52028-.729-1.04948-1.45166-1.8419-2.54676-2.4952,5.49362-5.14286,10.48877-6.96985,15.76795-.70241,2.02963.44845,4.70834.78749,7.08667a20.04308,20.04308,0,0,0,.54043,2.69061,3.943,3.943,0,0,1-1.641,4.81033c-1.90552,1.233-3.64383.68445-5.16123-.85876a4.49538,4.49538,0,0,0-.76523-.477q-5.82845,12.77646-11.61309,25.45874c-2.5188,5.5264-5.09967,11.026-7.51835,16.596a10.587,10.587,0,0,1-6.97764,6.22445,44.06691,44.06691,0,0,1-48.59326-15.0007,9.977,9.977,0,0,1-2.04795-9.139q6.46029-24.23016,12.93489-48.45651c1.1157-4.17895,2.10619-8.39718,3.401-12.51983.592-1.88492.10247-2.779-1.44236-3.84873-11.66313-8.07617-21.51936-17.92471-28.23683-30.51782-1.95433-3.66379-3.012-7.87293-4.03171-11.94455-.67779-2.70648.50289-5.12048,2.592-7.168q32.49054-31.84415,64.87818-63.79314c2.49229-2.45785,5.28192-3.70819,8.77542-3.15252,4.01013.63786,8.015,1.30914,12.15532,1.98773,0-3.03052.05926-6.23963-.05-9.443a3.626,3.626,0,0,0-1.07128-1.8746,25.69789,25.69789,0,0,0-3.437-3.62c-3.68473-2.86142-4.32171-6.60621-3.7369-10.927.78932-5.83194,2.047-11.57257,5.24479-16.52692,2.21543-3.43234,2.53928-6.887,1.98928-11.28259-.86328,1.126-1.49085,1.90888-2.08074,2.71918-13.23483,18.18089-26.51219,36.33122-39.65257,54.58014-2.27809,3.16375-5.04956,4.06494-8.64012,3.43329-6.40189-1.12623-11.87247-4.2925-17.03087-8.00254-11.72147-8.43026-21.56393-18.60412-28.10822-31.61825a42.411,42.411,0,0,1-2.99369-8.94882A8.34652,8.34652,0,0,1,135.409,174.743q32.49209-31.84261,64.87379-63.7977a10.30028,10.30028,0,0,1,8.32939-3.08089,44.51,44.51,0,0,1,19.946,5.80061c.36121.205.7217.41487,1.099.58617a2.47035,2.47035,0,0,0,.71113.00951c0-1.84832.02146-3.71865-.00624-5.58827a50.35525,50.35525,0,0,1-.127-5.24379c.58745-6.47678-.662-12.25744-5.30285-17.18461a7.84565,7.84565,0,0,1-1.5089-8.22972c1.62857-4.60346,3.51956-9.11348,5.23434-13.68746a10.2639,10.2639,0,0,0,.84353-3.52951c-.10634-14.66394-.29334-29.32731-.45789-43.99085-.00841-.74981-.01643-1.50015.00137-2.24963.06781-2.8522,1.47274-4.46462,3.90647-4.49963,2.43632-.03506,3.94487,1.57289,4.01167,4.39636q.23946,10.12045.41112,20.24249c.08731,5.16516.11877,10.33125.1911,15.4967.01236.88306.10524,1.765.1803,2.95418.74321-.45864,1.23458-.70432,1.66122-1.03384a46.27918,46.27918,0,0,1,20.19527-8.72108,11.50611,11.50611,0,0,1,11.0787,3.52478q21.82173,22.01262,43.78122,43.88871c8.36054,8.37219,16.67551,16.7907,25.11063,25.08709a7.33951,7.33951,0,0,1,2.08331,7.724c-1.47174,5.56-4.79459,10.04835-8.58041,14.18055-10.58365,11.552-22.98139,20.4825-38.022,25.30592a41.24458,41.24458,0,0,1-9.56268,1.49031c-3.30627.23971-5.773-1.33341-7.74228-4.117q-18.25432-25.802-36.68353-51.4803a9.0869,9.0869,0,0,0-2.43477-2.5034c0,1.08431-.00723,2.1687.00269,3.25292.00608.66639.10693,1.33863.04832,1.99786a22.58008,22.58008,0,0,0,5.09822,16.99719c2.51053,3.13159,3.64986,7.40649,5.19733,11.25142a8.01267,8.01267,0,0,1-1.124,8.04567c-2.10457,2.89759-4.09529,5.88574-6.33324,8.676a8.329,8.329,0,0,0-1.98892,6.42457,48.07689,48.07689,0,0,1,.03775,5.21863c5.61-2.57919,10.92121-5.05856,16.26531-7.465,3.63864-1.63849,6.79605-.82808,9.97125,1.58116q38.81754,29.45343,77.8078,58.67818c3.6795,2.74989,4.52,5.91992,3.53879,9.98593-1.74341,7.22479-5.77161,13.2437-10.344,18.90406-8.30807,10.28486-17.95068,19.0449-30.04324,24.68959a42.45983,42.45983,0,0,1-9.76132,2.79681c-2.95914.58176-5.42023-.64-7.55338-2.9007q-22.9876-24.36144-46.10153-48.60374C242.66486,225.30414,241.93817,224.62643,240.95076,223.65215Z"/></svg>