<?xml version="1.0" encoding="UTF-8"?>
<svg xmlns="http://www.w3.org/2000/svg" xmlns:xlink="http://www.w3.org/1999/xlink" width="594.95996pt" height="841.91998pt" viewBox="0 0 594.95996 841.91998" version="1.1">
<defs>
<clipPath id="clip1">
  <path d="M 36 36 L 559 36 L 559 805.867188 L 36 805.867188 Z M 36 36 "/>
</clipPath>
<clipPath id="clip2">
  <path d="M 36 159.433594 L 559 159.433594 L 559 682.433594 L 36 682.433594 Z M 36 159.433594 "/>
</clipPath>
</defs>
<g id="surface1">
<g clip-path="url(#clip1)" clip-rule="nonzero">
<path style=" stroke:none;fill-rule:nonzero;fill:rgb(100%,100%,100%);fill-opacity:1;" d="M 36 36 L 559 36 L 559 805.867188 L 36 805.867188 Z M 36 36 "/>
<path style=" stroke:none;fill-rule:nonzero;fill:rgb(100%,100%,100%);fill-opacity:1;" d="M 36 36 L 559 36 L 559 805.867188 L 36 805.867188 Z M 36 36 "/>
</g>
<path style=" stroke:none;fill-rule:nonzero;fill:rgb(84.709167%,85.488892%,89.019775%);fill-opacity:1;" d="M 370.839844 267.59375 C 364.546875 267.59375 358.515625 265.09375 354.070312 260.648438 C 354.070312 260.648438 314.269531 220.847656 314.269531 220.847656 C 305.007812 211.585938 289.992188 211.585938 280.730469 220.847656 C 280.730469 220.847656 240.929688 260.648438 240.929688 260.648438 C 236.484375 265.09375 230.453125 267.59375 224.164062 267.59375 C 224.164062 267.59375 167.875 267.59375 167.875 267.59375 C 154.777344 267.59375 144.160156 278.210938 144.160156 291.308594 C 144.160156 291.308594 144.160156 347.59375 144.160156 347.59375 C 144.160156 353.886719 141.660156 359.917969 137.214844 364.363281 C 137.214844 364.363281 97.414062 404.164062 97.414062 404.164062 C 88.152344 413.425781 88.152344 428.441406 97.414062 437.703125 C 97.414062 437.703125 137.214844 477.503906 137.214844 477.503906 C 141.660156 481.953125 144.160156 487.984375 144.160156 494.273438 C 144.160156 494.273438 144.160156 550.558594 144.160156 550.558594 C 144.160156 563.65625 154.777344 574.273438 167.875 574.273438 C 167.875 574.273438 224.160156 574.273438 224.160156 574.273438 C 230.449219 574.273438 236.480469 576.773438 240.929688 581.21875 C 240.929688 581.21875 280.730469 621.019531 280.730469 621.019531 C 289.992188 630.28125 305.007812 630.28125 314.269531 621.019531 C 314.269531 621.019531 354.070312 581.21875 354.070312 581.21875 C 358.515625 576.773438 364.550781 574.273438 370.839844 574.273438 C 370.839844 574.273438 427.125 574.273438 427.125 574.273438 C 440.222656 574.273438 450.839844 563.65625 450.839844 550.558594 C 450.839844 550.558594 450.839844 494.273438 450.839844 494.273438 C 450.839844 487.984375 453.339844 481.953125 457.785156 477.503906 C 457.785156 477.503906 497.585938 437.703125 497.585938 437.703125 C 506.847656 428.441406 506.847656 413.425781 497.585938 404.164062 C 497.585938 404.164062 457.785156 364.363281 457.785156 364.363281 C 453.339844 359.917969 450.839844 353.886719 450.839844 347.59375 C 450.839844 347.59375 450.839844 291.308594 450.839844 291.308594 C 450.839844 278.210938 440.222656 267.59375 427.125 267.59375 C 427.125 267.59375 370.839844 267.59375 370.839844 267.59375 Z M 370.839844 267.59375 "/>
<g clip-path="url(#clip2)" clip-rule="nonzero">
<path style="fill:none;stroke-width:10;stroke-linecap:butt;stroke-linejoin:miter;stroke:rgb(84.709167%,85.488892%,89.019775%);stroke-opacity:1;stroke-miterlimit:10;" d="M 71.797363 -150.115104 C 65.63675 -150.115104 59.732352 -152.562523 55.380535 -156.91434 C 55.380535 -156.91434 16.41686 -195.878016 16.41686 -195.878016 C 7.349937 -204.944938 -7.349874 -204.944938 -16.416796 -195.878016 C -16.416796 -195.878016 -55.380472 -156.91434 -55.380472 -156.91434 C -59.732289 -152.562523 -65.636687 -150.115104 -71.793475 -150.115104 C -71.793475 -150.115104 -126.898644 -150.115104 -126.898644 -150.115104 C -139.720825 -150.115104 -150.114708 -139.721222 -150.114708 -126.899041 C -150.114708 -126.899041 -150.114708 -71.797696 -150.114708 -71.797696 C -150.114708 -65.637083 -152.562127 -59.732685 -156.913944 -55.380868 C -156.913944 -55.380868 -195.877619 -16.417193 -195.877619 -16.417193 C -204.944542 -7.35027 -204.944542 7.34954 -195.877619 16.416463 C -195.877619 16.416463 -156.913944 55.380138 -156.913944 55.380138 C -152.562127 59.735779 -150.114708 65.640178 -150.114708 71.796966 C -150.114708 71.796966 -150.114708 126.898311 -150.114708 126.898311 C -150.114708 139.720492 -139.720825 150.114375 -126.898644 150.114375 C -126.898644 150.114375 -71.797299 150.114375 -71.797299 150.114375 C -65.640511 150.114375 -59.736113 152.561794 -55.380472 156.913611 C -55.380472 156.913611 -16.416796 195.877286 -16.416796 195.877286 C -7.349874 204.944209 7.349937 204.944209 16.41686 195.877286 C 16.41686 195.877286 55.380535 156.913611 55.380535 156.913611 C 59.732352 152.561794 65.640574 150.114375 71.797363 150.114375 C 71.797363 150.114375 126.898707 150.114375 126.898707 150.114375 C 139.720889 150.114375 150.114771 139.720492 150.114771 126.898311 C 150.114771 126.898311 150.114771 71.796966 150.114771 71.796966 C 150.114771 65.640178 152.56219 59.735779 156.914007 55.380138 C 156.914007 55.380138 195.877683 16.416463 195.877683 16.416463 C 204.944605 7.34954 204.944605 -7.35027 195.877683 -16.417193 C 195.877683 -16.417193 156.914007 -55.380868 156.914007 -55.380868 C 152.56219 -59.732685 150.114771 -65.637083 150.114771 -71.797696 C 150.114771 -71.797696 150.114771 -126.899041 150.114771 -126.899041 C 150.114771 -139.721222 139.720889 -150.115104 126.898707 -150.115104 C 126.898707 -150.115104 71.797363 -150.115104 71.797363 -150.115104 Z M 71.797363 -150.115104 " transform="matrix(1.021484,0,0,1.021484,297.499968,420.933966)"/>
</g>
</g>
</svg>
