<?xml version="1.0" encoding="utf-8"?>
<!-- Generator: Adobe Illustrator 26.0.2, SVG Export Plug-In . SVG Version: 6.00 Build 0)  -->
<svg version="1.1" id="Layer_4" xmlns="http://www.w3.org/2000/svg" xmlns:xlink="http://www.w3.org/1999/xlink" x="0px" y="0px"
	 viewBox="0 0 512 512" style="enable-background:new 0 0 512 512;" xml:space="preserve">
<style type="text/css">
	.st0{fill:#D8DAE3;}
</style>
<g>
	<path class="st0" d="M456.83,129.9c0,4.97-4.03,9-9,9H424.6c11.11,24.9,17.31,52.37,17.31,80.81c0,53.81-14.58,96.78-39.06,128.53
		c-3.47,10.6-6.61,21.94-6.95,23.19c-0.56,2.07,1.13,29.93-6.96,44.61c-8.1,14.68-26.73,19.39-29.56,19.39
		c0,0-5.64,34.45-44.61,29.18c0,0-3.95,29.73-34.45,29.74c-33.12,0.01-37.64-21.84-37.64-21.84s-16.57,4.9-30.68-1.5
		c-14.12-6.4-16.38-16.38-16.38-16.38l-2.26-2.26c0,0-21.46-0.75-30.68-14.12c-9.23-13.36-11.28-28.63-12.24-38.02
		c-0.41-4.03-1.82-8.43-3.64-12.68c-2.11,0.67-4.3,1.14-6.53,1.43c-1.51,0.19-3.02,0.28-4.51,0.28c-8,0-15.68-2.67-21.58-7.61
		L84.2,356.61c-4.87-4.07-5.52-11.32-1.45-16.2c4.07-4.87,11.32-5.52,16.2-1.45L128.92,364c0.23,0.2,0.48,0.38,0.74,0.55
		c-36.79-35.69-58.39-87.36-58.39-144.84c0-107.71,82.97-195.02,185.32-195.02c39.92,0,76.91,13.85,107.16,36.92V49.55
		c0-4.97,4.03-9,9-9s9,4.03,9,9V77.2c2.61,2.55,5.16,5.18,7.62,7.89c-0.02-0.22-0.02-0.45-0.02-0.67V49.55c0-4.97,4.03-9,9-9
		c4.97,0,9,4.03,9,9v34.87c0,5.5,5.04,9.96,11.23,9.96h28.9c4.97,0,9,4.03,9,9c0,4.97-4.03,9-9,9h-28.9c-3.21,0-6.3-0.5-9.19-1.43
		c2.11,3.25,4.14,6.57,6.07,9.95h32.37C452.8,120.9,456.83,124.93,456.83,129.9z"/>
	<path class="st0" d="M79.09,478.74c-2.52,0-5.06-0.83-7.18-2.53c-4.96-3.97-5.76-11.21-1.78-16.17l25.04-31.25
		c0.07-0.09,0.14-0.17,0.21-0.26c4.07-4.78,3.91-14.87-2.38-20.23l-29.17-24.81c-4.84-4.11-5.43-11.37-1.31-16.21
		c4.11-4.84,11.37-5.43,16.21-1.31l29.17,24.81c15.34,13.04,17.71,37.53,5.13,52.5l-24.94,31.13
		C85.8,477.27,82.46,478.74,79.09,478.74z"/>
	<path class="st0" d="M103.95,498.29c-2.47,0-4.95-0.79-7.05-2.42c-5.01-3.9-5.92-11.12-2.02-16.14l23.51-30.23
		c11.94-15.36,33.26-17.37,49.58-4.68c0.19,0.15,0.37,0.3,0.55,0.46l29.35,25.9c4.76,4.2,5.21,11.47,1.01,16.23
		c-4.2,4.76-11.47,5.21-16.23,1.01l-29.03-25.63c-1.83-1.35-10.78-7.28-17.07,0.82l-23.51,30.23
		C110.77,496.76,107.37,498.29,103.95,498.29z"/>
</g>
</svg>
