<?xml version="1.0" encoding="utf-8"?>
<!-- Generator: Adobe Illustrator 26.0.2, SVG Export Plug-In . SVG Version: 6.00 Build 0)  -->
<svg version="1.1" id="Layer_2" xmlns="http://www.w3.org/2000/svg" xmlns:xlink="http://www.w3.org/1999/xlink" x="0px" y="0px"
	 viewBox="0 0 512 512" style="enable-background:new 0 0 512 512;" xml:space="preserve">
<style type="text/css">
	.st0{fill:#D8DAE3;}
</style>
<g>
	<path class="st0" d="M208.47,34.25c-5.26-3.87-10.59-4.38-20.75,0s-21.04,9.46-24.85,13.84c-3.81,4.38-4.24,14.26,0.56,19.06
		s9.18,5.79,16.24,3.95c0,0,1.06,0.42-0.46,2.61c-1.52,2.19-6.39,11.86-3.07,19.55s15.6,11.36,28.16,4.52
		c12.56-6.85,20.4-11.15,22.8-19.69s-3.32-17.15-8.33-17.72s-6.42,0.49-7.06-0.28c-0.64-0.78,3.39-5.65,2.4-13.84
		S209.71,35.17,208.47,34.25z"/>
	<path class="st0" d="M306.21,58.02c0,0-14.4,2.92-23.15-9.69c-8.75-12.61-1.41-26.45,6.59-31.53c8-5.08,45.46-10.26,51.58-10.73
		c6.12-0.47,21.74,3.39,23.34,17.04c1.6,13.65-5.93,27.48-10.73,33.41c0,0,3.86,0.56,8.38,1.04c4.52,0.47,16.56,9.6,10.82,25.69
		c-5.74,16.09-27.11,22.96-50.82,24.66c-23.72,1.69-35.58-9.13-33.51-23.25S306.21,58.02,306.21,58.02z"/>
	<path class="st0" d="M425.55,149.6c0,0-12.52,0.78-18.52-9.74c-6-10.52-1.48-23.58,10.59-27.46c12.07-3.88,37.2-3.95,45.11-2.68
		c7.91,1.27,18.21,10.52,15.74,21.81s-9.04,18.92-9.04,18.92s5.29-0.71,10.38,3.46c5.08,4.16,9.81,12.21,3.74,22.8
		c-6.07,10.59-21.6,13.55-37.76,14.26s-30.78-3.81-32.61-14.68c-1.84-10.87,3.26-17.18,6.14-19.84
		C422.74,153.29,425.55,149.6,425.55,149.6z"/>
	<path class="st0" d="M316.42,181.53c-76.9,0-142.4,39.45-167.2,94.68c0,0,0,0,0,0s-24.05,44.64-40,84.59
		c-15.95,39.95-17.51,46.16-17.51,46.16s-18.21,3.95-30.21,11.58c0,0-7.34-14.26-25.13-15.25S5.88,414.44,6.16,431.52
		s17.02,26.33,31.76,24.56c14.12-1.69,17.93-7.76,17.93-7.76s67.76,4.52,96.28,5.65c26.9,1.07,69.48,2.51,85.37,0.06
		c23.78,9.53,50.57,14.9,78.92,14.9c98.21,0,177.82-64.34,177.82-143.7S414.63,181.53,316.42,181.53z"/>
</g>
</svg>
