<?xml version="1.0" encoding="UTF-8"?>
<svg xmlns="http://www.w3.org/2000/svg" xmlns:xlink="http://www.w3.org/1999/xlink" width="594.95996pt" height="841.91998pt" viewBox="0 0 594.95996 841.91998" version="1.1">
<defs>
<clipPath id="clip1">
  <path d="M 36 36 L 559 36 L 559 805.867188 L 36 805.867188 Z M 36 36 "/>
</clipPath>
</defs>
<g id="surface1">
<g clip-path="url(#clip1)" clip-rule="nonzero">
<path style=" stroke:none;fill-rule:nonzero;fill:rgb(100%,100%,100%);fill-opacity:1;" d="M 36 36 L 559 36 L 559 805.867188 L 36 805.867188 Z M 36 36 "/>
<path style=" stroke:none;fill-rule:nonzero;fill:rgb(100%,100%,100%);fill-opacity:1;" d="M 36 36 L 559 36 L 559 805.867188 L 36 805.867188 Z M 36 36 "/>
</g>
<path style="fill-rule:nonzero;fill:rgb(84.709167%,85.488892%,89.019775%);fill-opacity:1;stroke-width:10;stroke-linecap:round;stroke-linejoin:round;stroke:rgb(84.709167%,85.488892%,89.019775%);stroke-opacity:1;stroke-miterlimit:4;" d="M -94.168239 -190.902872 C -114.695966 -190.902872 -131.334591 -174.264247 -131.334591 -153.73652 C -131.334591 -147.598852 -129.847019 -141.805352 -127.208395 -136.704013 C -161.58316 -134.478391 -188.77628 -105.889478 -188.77628 -70.956396 C -188.77628 -47.197311 -176.198841 -26.375129 -157.342242 -14.784305 C -186.107064 -7.365566 -207.357544 18.752983 -207.357544 49.839029 C -207.357544 75.67842 -192.67303 98.083776 -171.193104 109.173643 C -173.820255 115.919342 -175.258114 123.257775 -175.258114 130.928904 C -175.258114 164.053191 -148.409163 190.902142 -115.284876 190.902142 C -115.284876 190.902142 147.384369 190.902142 147.384369 190.902142 C 180.508656 190.902142 207.357607 164.053191 207.357607 130.928904 C 207.357607 112.986263 199.479977 96.883011 186.990492 85.89257 C 200.019174 60.0723 207.357607 30.894476 207.357607 -0.000364872 C 207.357607 -105.434411 121.889147 -190.902872 16.4551 -190.902872 C 16.4551 -190.902872 -94.168239 -190.902872 -94.168239 -190.902872 Z M -94.168239 -190.902872 " transform="matrix(1.021484,0,0,1.021484,297.499968,420.933966)"/>
</g>
</svg>
